<?xml version="1.0" encoding="UTF-8" standalone="no"?>
<!-- Created with Inkscape (http://www.inkscape.org/) -->

<svg
   version="1.1"
   id="svg2"
   width="232.72"
   height="81.853333"
   viewBox="0 0 232.72 81.853333"
   sodipodi:docname="SBU stack_2clr_rgb.eps"
   xmlns:inkscape="http://www.inkscape.org/namespaces/inkscape"
   xmlns:sodipodi="http://sodipodi.sourceforge.net/DTD/sodipodi-0.dtd"
   xmlns="http://www.w3.org/2000/svg"
   xmlns:svg="http://www.w3.org/2000/svg">
  <defs
     id="defs6" />
  <sodipodi:namedview
     id="namedview4"
     pagecolor="#ffffff"
     bordercolor="#000000"
     borderopacity="0.25"
     inkscape:showpageshadow="2"
     inkscape:pageopacity="0.0"
     inkscape:pagecheckerboard="0"
     inkscape:deskcolor="#d1d1d1" />
  <g
     id="g8"
     inkscape:groupmode="layer"
     inkscape:label="ink_ext_XXXXXX"
     transform="matrix(1.3333333,0,0,-1.3333333,0,81.853333)">
    <g
       id="g10"
       transform="scale(0.1)">
      <path
         d="m 405.063,563.766 c -112.911,68.929 -290.829,64.8 -405.0395625,0 V 383.035 C -1.34375,285.695 61.332,195.051 146.117,153.164 c 18.672,-9.187 35.949,-15.566 56.446,-20.371 20.48,4.805 37.753,11.184 56.417,20.371 84.754,41.856 147.461,132.531 146.063,229.871 l 0.02,180.731"
         style="fill:#ffffff;fill-opacity:1;fill-rule:nonzero;stroke:none"
         id="path12" />
      <path
         d="m 339.516,215.051 -85.254,396.375 c -3.574,0.363 -7.176,0.578 -10.762,0.855 l 71.621,-421.402 c 8.633,7.512 16.777,15.598 24.395,24.172"
         style="fill:#971a1f;fill-opacity:1;fill-rule:nonzero;stroke:none"
         id="path14" />
      <path
         d="m 404.652,368.594 -98.418,234.215 c -3.769,0.867 -7.578,1.597 -11.386,2.347 L 399.164,328.621 c 3,13.07 4.805,26.438 5.488,39.973"
         style="fill:#971a1f;fill-opacity:1;fill-rule:nonzero;stroke:none"
         id="path16" />
      <path
         d="m 258.98,153.184 c 6.434,3.183 12.696,6.738 18.868,10.461 L 228.98,613.379 c -3.847,0.18 -7.707,0.156 -11.582,0.254 l 29.637,-465.977 c 3.957,1.75 7.903,3.535 11.945,5.528"
         style="fill:#971a1f;fill-opacity:1;fill-rule:nonzero;stroke:none"
         id="path18" />
      <path
         d="M 383.512,282.609 279.801,607.992 c -3.625,0.594 -7.278,1.051 -10.91,1.555 l 98.293,-357.496 c 6.113,9.812 11.582,20.019 16.328,30.558"
         style="fill:#971a1f;fill-opacity:1;fill-rule:nonzero;stroke:none"
         id="path20" />
      <path
         d="m 405.074,563.789 c -24.914,15.195 -53.078,26.641 -82.91,34.863 l 82.879,-173.621 0.031,138.758"
         style="fill:#971a1f;fill-opacity:1;fill-rule:nonzero;stroke:none"
         id="path22" />
      <path
         d="m 125.199,398.613 11.321,-34.754 -29.563,21.485 -29.5,-21.485 11.2969,34.754 -29.3945,21.407 h 36.3398 l 11.2578,34.546 11.328,-34.546 h 36.289 z M 0.0234375,563.789 V 383.059 C -1.36328,285.715 61.3242,195.051 146.109,153.184 c 18.661,-9.2 35.957,-15.567 56.434,-20.371 V 613.926 C 129.84,613.336 56.9961,596.125 0.0234375,563.789"
         style="fill:#971a1f;fill-opacity:1;fill-rule:nonzero;stroke:none"
         id="path24" />
      <path
         d="m 512.305,297.047 h -8.403 l -1.199,69.605 h 9.84 c 7.203,-39.601 27.363,-60.246 58.086,-60.246 26.164,0 40.562,13.203 40.562,34.328 0,10.079 -3.836,17.996 -10.562,22.797 -8.399,6 -21.84,8.403 -39.359,13.203 -38.403,10.321 -56.883,19.922 -56.883,51.606 0,29.762 19.922,48.961 51.121,48.961 17.523,0 32.887,-5.758 44.883,-16.797 l 9.359,14.398 h 8.883 l 2.64,-62.406 h -9.359 c -9.121,35.766 -28.082,53.766 -56.406,53.766 -21.121,0 -33.121,-10.563 -33.121,-29.043 0,-23.043 18,-25.68 49.922,-33.606 17.281,-4.316 31.683,-7.918 42.726,-18 9.36,-8.64 14.637,-21.597 14.637,-36.961 0,-33.363 -21.117,-53.047 -59.52,-53.047 -18.726,0 -36.246,6.723 -47.765,18.004 l -10.082,-16.562"
         style="fill:#100f0d;fill-opacity:1;fill-rule:nonzero;stroke:none"
         id="path26" />
      <path
         d="m 632.066,400.492 v 9.606 c 19.676,1.441 30.961,18.48 32.157,49.683 h 10.086 v -48.726 h 34.562 v -10.563 h -35.766 v -69.363 c 0,-13.684 2.641,-20.402 14.161,-20.402 13.207,0 19.203,10.562 19.925,32.64 h 8.879 c 0,-0.957 0,-2.156 0,-3.117 0,-29.043 -13.195,-44.406 -37.441,-44.406 -21.602,0 -27.363,10.562 -27.363,33.125 v 71.523 h -19.2"
         style="fill:#100f0d;fill-opacity:1;fill-rule:nonzero;stroke:none"
         id="path28" />
      <path
         d="m 776.313,305.93 c 21.113,0 29.511,15.597 29.511,49.441 0,33.844 -8.398,49.684 -29.277,49.684 -20.879,0 -29.277,-15.84 -29.277,-49.684 0,-33.601 8.632,-49.441 29.043,-49.441 z m 0.234,108.968 c 31.68,0 53.769,-23.765 53.769,-59.527 0,-35.762 -22.324,-59.285 -53.769,-59.285 -31.445,0 -54.004,23.523 -54.004,59.285 0,35.762 22.324,59.527 54.004,59.527"
         style="fill:#100f0d;fill-opacity:1;fill-rule:nonzero;stroke:none"
         id="path30" />
      <path
         d="m 836.059,310.012 10.324,0.476 c 6.726,0.239 7.918,1.918 7.918,8.883 v 72.965 c 0,7.918 -2.871,9.598 -13.203,9.598 -2.157,0 -4.551,-0.239 -7.196,-0.239 v 9.36 l 41.043,2.883 v -23.043 c 10.801,15.843 22.805,23.043 39.368,23.043 22.8,0 36.238,-13.684 36.238,-38.407 v -56.16 c 0,-6.965 1.445,-8.644 7.922,-8.883 l 10.32,-0.476 v -10.086 h -58.086 v 10.086 l 10.324,0.476 c 6.239,0.239 7.918,1.918 7.918,8.883 v 57.121 c 0,14.403 -7.918,22.567 -22.078,22.567 -20.168,0 -30.723,-13.446 -30.723,-40.09 v -39.598 c 0,-6.723 0.957,-8.644 7.918,-8.883 l 10.079,-0.476 v -10.086 h -58.086 v 10.086"
         style="fill:#100f0d;fill-opacity:1;fill-rule:nonzero;stroke:none"
         id="path32" />
      <path
         d="m 980.531,390.656 c -1.679,3.598 -3.593,6.477 -5.508,7.68 -2.89,1.918 -7.207,2.641 -12.968,2.641 v 10.078 h 55.925 v -10.078 c -2.4,0 -4.32,0 -6,0 -6.96,0 -9.6,-0.723 -9.6,-5.039 0,-1.442 0.96,-3.844 2.4,-7.442 l 25.44,-58.562 24,57.601 c 0.48,1.442 1.2,2.879 1.2,5.278 0,6.722 -4.79,7.925 -16.8,8.164 v 10.078 h 46.33 v -10.078 c -8.88,0 -14.16,-4.082 -18,-12.965 l -40.57,-94.324 C 1013.9,264.645 1000.7,250 979.82,250 c -14.16,0 -22.082,7.203 -22.082,18.488 0,7.918 5.996,14.16 14.395,14.16 7.687,0 12.48,-4.562 12.48,-11.765 0,-4.082 -1.914,-6 -1.914,-6.957 0,-1.684 1.446,-2.641 4.317,-2.641 7.675,0 19.684,12.719 30.004,37.68 l 1.68,3.844 -38.169,87.847"
         style="fill:#100f0d;fill-opacity:1;fill-rule:nonzero;stroke:none"
         id="path34" />
      <path
         d="m 1179.02,322.488 c 0,-8.879 2.4,-11.281 13.2,-11.281 h 17.04 c 28.57,0 41.05,10.082 41.05,36.004 0,27.363 -15.13,37.203 -49.69,37.203 h -21.6 z m 0,72.489 h 19.2 c 30.96,0 44.65,7.203 44.65,33.843 0,24.243 -10.8,33.602 -36.73,33.602 h -15.12 c -9.84,0 -12,-2.402 -12,-10.563 z m -50.89,-83.77 h 12.48 c 9.61,0 12.72,2.16 12.72,11.523 v 127.692 c 0,9.359 -3.11,11.516 -12.72,11.516 h -12.48 v 11.285 h 90.73 c 34.08,0 51.85,-14.883 51.85,-42.246 0,-20.641 -13.45,-34.321 -40.32,-40.082 33.11,-4.325 49.19,-18.961 49.19,-44.407 0,-29.043 -22.55,-46.562 -63.6,-46.562 h -87.85 v 11.281"
         style="fill:#100f0d;fill-opacity:1;fill-rule:nonzero;stroke:none"
         id="path36" />
      <path
         d="m 1335.26,310.488 14.64,-0.476 v -10.086 h -63.13 v 10.086 l 11.28,0.476 c 6.72,0.239 7.92,2.16 7.92,8.883 v 72.965 c 0,8.402 -3.11,9.359 -14.39,9.359 -2.17,0 -4.56,0 -7.21,0 v 9.36 l 41.77,2.883 v -33.844 c 7.44,22.801 19.68,34.562 35.04,34.562 12.97,0 21.84,-8.879 21.84,-20.402 0,-8.879 -6,-14.879 -13.92,-14.879 -8.88,0 -14.16,5.52 -14.16,13.684 0,4.312 1.68,8.156 4.8,10.316 -0.48,0 -0.96,0 -1.44,0 -15.12,0 -30.96,-22.801 -30.96,-58.324 v -25.68 c 0,-6.723 1.2,-8.644 7.92,-8.883"
         style="fill:#100f0d;fill-opacity:1;fill-rule:nonzero;stroke:none"
         id="path38" />
      <path
         d="m 1439.65,305.93 c 21.13,0 29.52,15.597 29.52,49.441 0,33.844 -8.39,49.684 -29.27,49.684 -20.88,0 -29.29,-15.84 -29.29,-49.684 0,-33.601 8.64,-49.441 29.04,-49.441 z m 0.25,108.968 c 31.68,0 53.76,-23.765 53.76,-59.527 0,-35.762 -22.32,-59.285 -53.76,-59.285 -31.45,0 -54.01,23.523 -54.01,59.285 0,35.762 22.33,59.527 54.01,59.527"
         style="fill:#100f0d;fill-opacity:1;fill-rule:nonzero;stroke:none"
         id="path40" />
      <path
         d="m 1558.21,305.93 c 21.12,0 29.52,15.597 29.52,49.441 0,33.844 -8.4,49.684 -29.28,49.684 -20.88,0 -29.28,-15.84 -29.28,-49.684 0,-33.601 8.64,-49.441 29.04,-49.441 z m 0.24,108.968 c 31.68,0 53.76,-23.765 53.76,-59.527 0,-35.762 -22.31,-59.285 -53.76,-59.285 -31.44,0 -54,23.523 -54,59.285 0,35.762 22.32,59.527 54,59.527"
         style="fill:#100f0d;fill-opacity:1;fill-rule:nonzero;stroke:none"
         id="path42" />
      <path
         d="m 1612.69,310.012 10.8,0.476 c 6.72,0.239 8.17,2.16 8.17,8.883 v 136.57 c 0,7.922 -2.89,9.602 -13.21,9.602 -1.92,0 -4.32,-0.238 -6.96,-0.238 v 9.359 l 42,2.879 V 358.73 l 36.96,33.844 c 1.68,1.68 2.88,4.082 2.88,5.281 0,3.122 -3.83,4.079 -12.23,4.079 h -7.69 v 9.121 h 61.45 v -9.121 c -0.48,0 -0.96,0 -1.44,0 -15.6,0 -24.96,-7.438 -37.2,-18.719 l -12.24,-11.281 37.68,-50.164 c 6,-8.161 12.72,-11.282 23.76,-11.758 v -10.086 h -61.93 v 10.086 l 7.21,0.476 c 5.52,0.239 8.4,0.719 8.4,3.598 0,1.922 -0.96,3.121 -2.16,4.801 l -28.81,38.886 -14.64,-12.964 v -25.438 c 0,-6.965 1.45,-8.644 8.17,-8.883 l 10.55,-0.476 v -10.086 h -59.52 v 10.086"
         style="fill:#100f0d;fill-opacity:1;fill-rule:nonzero;stroke:none"
         id="path44" />
      <path
         d="m 574.063,223.223 v -11.285 h -12.481 c -9.602,0 -12.715,-2.395 -12.715,-11.516 v -96.969 c 0,-30.4842 15.117,-44.4061 47.996,-44.4061 21.606,0 36.008,7.6836 42.727,22.3203 3.125,6.7226 3.601,17.7656 3.601,33.3628 v 75.606 c 0,14.644 -3.125,21.602 -17.285,21.602 h -10.554 v 11.285 h 66.003 v -11.285 h -8.882 c -13.684,0 -17.524,-6.239 -17.524,-21.602 v -76.563 c 0,-47.0425 -17.281,-67.9292 -66.48,-67.9292 -43.449,0 -65.531,19.4453 -65.531,57.8472 v 96.731 c 0,9.121 -2.633,11.516 -12.723,11.516 h -13.914 v 11.285 h 77.762"
         style="fill:#971a1f;fill-opacity:1;fill-rule:nonzero;stroke:none"
         id="path46" />
      <path
         d="m 669.813,60.0117 10.324,0.4766 c 6.718,0.2383 7.922,1.918 7.922,8.8828 v 72.9649 c 0,7.918 -2.883,9.598 -13.204,9.598 -2.16,0 -4.562,-0.239 -7.199,-0.239 v 9.36 l 41.039,2.883 v -23.043 c 10.801,15.843 22.813,23.043 39.375,23.043 22.793,0 36.231,-13.684 36.231,-38.407 V 69.3711 c 0,-6.9648 1.445,-8.6445 7.929,-8.8828 l 10.313,-0.4766 V 49.9258 h -58.086 v 10.0859 l 10.332,0.4766 c 6.231,0.2383 7.91,1.918 7.91,8.8828 v 57.1209 c 0,14.403 -7.91,22.567 -22.07,22.567 -20.176,0 -30.723,-13.446 -30.723,-40.09 V 69.3711 c 0,-6.7227 0.957,-8.6445 7.91,-8.8828 l 10.079,-0.4766 V 49.9258 h -58.082 v 10.0859"
         style="fill:#971a1f;fill-opacity:1;fill-rule:nonzero;stroke:none"
         id="path48" />
      <path
         d="m 851.254,209.301 c 0,-7.918 -6.484,-14.16 -14.395,-14.16 -7.929,0 -14.16,6.718 -14.16,14.16 0,7.683 6.485,14.16 14.16,14.16 7.676,0 14.395,-6.238 14.395,-14.16 z m -44.395,-149.2893 11.524,0.4766 c 6.719,0.2383 8.144,2.1601 8.144,8.8828 v 72.9649 c 0,7.918 -2.871,9.598 -13.183,9.598 -1.934,0 -4.336,-0.239 -6.973,-0.239 v 9.36 l 42.012,2.883 V 69.3711 c 0,-6.9648 1.426,-8.6445 8.164,-8.8828 l 10.547,-0.4766 V 49.9258 h -60.235 v 10.0859"
         style="fill:#971a1f;fill-opacity:1;fill-rule:nonzero;stroke:none"
         id="path50" />
      <path
         d="m 921.566,46.0859 -41.523,95.2931 c -3.105,7.434 -6.465,9.598 -15.586,9.598 -0.723,0 -1.211,0 -1.68,0 v 10.078 h 53.75 v -10.078 c -10.078,-0.239 -14.394,-0.961 -14.394,-5.524 0,-1.437 0.957,-3.836 2.637,-7.68 l 25.918,-59.7652 21.367,55.2072 c 1.445,3.84 2.402,6.961 2.402,9.598 0,5.042 -4.551,8.164 -13.203,8.164 -0.723,0 -1.68,0 -2.637,0 v 10.078 h 46.563 v -10.078 c -10.801,-0.239 -15.84,-5.524 -20.41,-16.801 L 929.008,46.0859 h -7.442"
         style="fill:#971a1f;fill-opacity:1;fill-rule:nonzero;stroke:none"
         id="path52" />
      <path
         d="m 1052.13,114.016 c 6.25,0 8.4,1.437 8.4,7.679 0,21.84 -9.12,33.602 -25.43,33.602 -18.24,0 -27.13,-13.68 -27.61,-41.281 z m -45.11,-15.1254 c 0,-25.4453 12.95,-40.082 31.91,-40.082 16.56,0 29.3,8.6367 38.16,25.9219 l 8.4,-4.7969 c -10.54,-22.5664 -27.59,-33.8477 -50.64,-33.8477 -30.24,0 -52.073,23.2852 -52.073,59.2851 0,35.762 21.603,59.527 52.073,59.527 30.98,0 50.64,-21.363 50.64,-56.886 0,-1.442 0,-2.879 0,-4.321 h -78.24 c 0,-1.679 -0.23,-3.121 -0.23,-4.8004"
         style="fill:#971a1f;fill-opacity:1;fill-rule:nonzero;stroke:none"
         id="path54" />
      <path
         d="m 1139.5,60.4883 14.65,-0.4766 V 49.9258 h -63.13 v 10.0859 l 11.27,0.4766 c 6.72,0.2383 7.93,2.1601 7.93,8.8828 v 72.9649 c 0,8.402 -3.13,9.359 -14.41,9.359 -2.15,0 -4.56,0 -7.19,0 v 9.36 l 41.76,2.883 v -33.844 c 7.44,22.801 19.68,34.562 35.04,34.562 12.96,0 21.83,-8.879 21.83,-20.402 0,-8.879 -6,-14.879 -13.91,-14.879 -8.88,0 -14.16,5.52 -14.16,13.684 0,4.312 1.68,8.156 4.79,10.316 -0.47,0 -0.96,0 -1.43,0 -15.13,0 -30.97,-22.801 -30.97,-58.3242 V 69.3711 c 0,-6.7227 1.21,-8.6445 7.93,-8.8828"
         style="fill:#971a1f;fill-opacity:1;fill-rule:nonzero;stroke:none"
         id="path56" />
      <path
         d="m 1202.84,93.8516 c 6.01,-24.7188 20.17,-37.6836 39.37,-37.6836 15.35,0 25.2,7.9179 25.2,19.9218 0,12.7188 -9.59,15.3594 -25.2,18.4805 -29.04,5.9997 -46.56,11.0387 -46.56,37.6877 0,19.922 13.44,32.398 33.36,32.398 11.52,0 20.39,-2.16 30.23,-9.359 l 6.98,8.398 h 7.44 v -39.843 h -7.44 c -6.72,20.886 -18.73,31.445 -35.77,31.445 -13.45,0 -21.85,-7.442 -21.85,-16.563 0,-14.16 10.33,-15.843 30,-19.679 28.34,-5.524 42.97,-12.004 42.97,-36.0042 0,-23.0391 -15.12,-37.4453 -40.08,-37.4453 -11.29,0 -21.37,3.6054 -31.45,11.7617 l -7.93,-11.0391 h -7.91 v 47.5235 h 8.64"
         style="fill:#971a1f;fill-opacity:1;fill-rule:nonzero;stroke:none"
         id="path58" />
      <path
         d="m 1333.87,209.301 c 0,-7.918 -6.46,-14.16 -14.39,-14.16 -7.91,0 -14.16,6.718 -14.16,14.16 0,7.683 6.48,14.16 14.16,14.16 7.67,0 14.39,-6.238 14.39,-14.16 z M 1289.48,60.0117 1301,60.4883 c 6.72,0.2383 8.17,2.1601 8.17,8.8828 v 72.9649 c 0,7.918 -2.9,9.598 -13.21,9.598 -1.93,0 -4.31,-0.239 -6.97,-0.239 v 9.36 l 42.01,2.883 V 69.3711 c 0,-6.9648 1.45,-8.6445 8.17,-8.8828 l 10.56,-0.4766 V 49.9258 h -60.25 v 10.0859"
         style="fill:#971a1f;fill-opacity:1;fill-rule:nonzero;stroke:none"
         id="path60" />
      <path
         d="m 1347.31,150.492 v 9.606 c 19.69,1.441 30.98,18.48 32.17,49.683 h 10.08 v -48.726 h 34.57 v -10.563 h -35.77 V 81.1289 c 0,-13.6836 2.64,-20.4023 14.16,-20.4023 13.21,0 19.2,10.5625 19.93,32.6406 h 8.88 c 0,-0.957 0,-2.1563 0,-3.1172 0,-29.043 -13.2,-44.4062 -37.46,-44.4062 -21.6,0 -27.36,10.5625 -27.36,33.125 v 71.5232 h -19.2"
         style="fill:#971a1f;fill-opacity:1;fill-rule:nonzero;stroke:none"
         id="path62" />
      <path
         d="m 1450.28,140.656 c -1.68,3.598 -3.61,6.477 -5.53,7.68 -2.87,1.918 -7.21,2.641 -12.95,2.641 v 10.078 h 55.92 v -10.078 c -2.4,0 -4.32,0 -6,0 -6.97,0 -9.61,-0.723 -9.61,-5.039 0,-1.442 0.96,-3.844 2.41,-7.442 l 25.45,-58.5624 24,57.6014 c 0.47,1.442 1.19,2.879 1.19,5.278 0,6.722 -4.8,7.925 -16.8,8.164 v 10.078 h 46.33 v -10.078 c -8.88,0 -14.18,-4.082 -18.01,-12.965 L 1496.12,43.6875 C 1483.64,14.6445 1470.43,0 1449.56,0 c -14.16,0 -22.09,7.20313 -22.09,18.4883 0,7.918 6.01,14.1601 14.41,14.1601 7.68,0 12.48,-4.5625 12.48,-11.7656 0,-4.082 -1.93,-6 -1.93,-6.957 0,-1.6836 1.44,-2.6406 4.33,-2.6406 7.68,0 19.67,12.7187 30,37.6796 l 1.68,3.8438 -38.16,87.8474"
         style="fill:#971a1f;fill-opacity:1;fill-rule:nonzero;stroke:none"
         id="path64" />
    </g>
  </g>
</svg>
