<?xml version="1.0" standalone="no"?>
<!DOCTYPE svg PUBLIC "-//W3C//DTD SVG 20010904//EN"
 "http://www.w3.org/TR/2001/REC-SVG-20010904/DTD/svg10.dtd">
<svg version="1.0" xmlns="http://www.w3.org/2000/svg"
 width="247.000000pt" height="247.000000pt" viewBox="0 0 247.000000 247.000000"
 preserveAspectRatio="xMidYMid meet">
<metadata>
Created by potrace 1.11, written by Peter Selinger 2001-2013
</metadata>
<g transform="translate(0.000000,247.000000) scale(0.100000,-0.100000)"
fill="#000000" stroke="none">
<path d="M1585 1796 c-99 -31 -181 -106 -229 -206 -29 -61 -31 -72 -31 -185 0
-112 2 -124 29 -180 16 -32 47 -78 68 -101 21 -22 34 -44 30 -48 -4 -4 -2 -6
3 -5 6 2 41 -12 80 -31 68 -34 72 -35 195 -35 114 0 130 2 180 26 149 70 230
205 230 383 0 183 -104 334 -264 381 -61 18 -235 19 -291 1z m239 -59 c65 -43
98 -154 99 -326 0 -250 -60 -361 -193 -363 -65 0 -109 28 -142 89 -37 70 -50
140 -50 268 0 166 26 257 91 319 48 46 136 51 195 13z"/>
<path d="M142 1778 c3 -7 15 -14 29 -16 13 -2 39 -18 57 -35 l32 -31 0 -270
c0 -259 -7 -337 -28 -358 -6 -6 -25 -13 -43 -17 -18 -4 -34 -12 -37 -19 -3 -9
29 -12 132 -12 75 0 136 4 136 9 0 5 -19 15 -42 23 -64 20 -69 42 -66 331 l3
240 100 -123 c55 -68 111 -139 125 -156 103 -134 284 -344 295 -344 13 0 15
48 15 328 0 290 2 330 17 351 9 14 11 21 5 17 -7 -4 -12 -2 -12 6 1 25 28 49
64 55 21 3 36 11 36 19 0 11 -28 14 -136 14 -104 0 -135 -3 -132 -12 3 -7 16
-14 30 -16 14 -2 36 -14 49 -28 23 -25 24 -32 27 -212 2 -103 2 -185 -1 -182
-62 68 -275 345 -270 353 3 5 2 7 -4 4 -6 -4 -28 16 -49 43 l-39 49 -148 1
c-115 0 -148 -3 -145 -12z"/>
<path d="M1056 1174 c-36 -36 -36 -100 -1 -138 19 -20 33 -26 68 -26 63 0 97
33 97 93 0 61 -35 97 -95 97 -32 0 -48 -6 -69 -26z"/>
</g>
</svg>
