<svg preserveAspectRatio="xMidYMid meet" data-bbox="0 36.89 1098.42 438.31" viewBox="0 0 1098.42 475.2" xmlns:xlink="http://www.w3.org/1999/xlink" xmlns="http://www.w3.org/2000/svg" data-type="ugc" role="presentation" aria-hidden="true" aria-labelledby="svgcid-ss2exyl4gmt1"><title id="svgcid-ss2exyl4gmt1"></title>
    <g>
        <defs>
            <linearGradient gradientUnits="userSpaceOnUse" y2="259.1" x2="310.57" y1="524.6" x1="48.45" id="svgcid-22uuy7ymkwzh">
                <stop stop-color="#f016ff" offset=".11"></stop>
                <stop stop-color="#f410ff" offset=".12"></stop>
                <stop stop-color="#d936ff" offset=".32"></stop>
                <stop stop-color="#b171ff" offset=".54"></stop>
                <stop stop-color="#89a8ff" offset=".76"></stop>
                <stop stop-color="#5cc9ff" offset=".82"></stop>
            </linearGradient>
            <linearGradient gradientUnits="userSpaceOnUse" y2="312.25" x2="369.62" y1="53.5" x1="115.37" id="svgcid--kw412s3amtxy">
                <stop stop-color="#b64aef" offset=".05"></stop>
                <stop stop-color="#aa7afa" offset=".29"></stop>
                <stop stop-color="#93a8f8" offset=".52"></stop>
                <stop stop-color="#86c4f7" offset=".66"></stop>
                <stop stop-color="#6df9f4" offset="1"></stop>
            </linearGradient>
            <linearGradient gradientUnits="userSpaceOnUse" y2="-35.33" x2="69.86" y1="503.17" x1="66.86" id="svgcid-ckaghr-awxhcm">
                <stop stop-color="#ff00ff" offset="0"></stop>
                <stop stop-color="#ff00ff" offset="1"></stop>
            </linearGradient>
            <clipPath transform="translate(0 36.89)" id="svgcid-eswzya-xrfuo8">
                <path d="M162.9 0l-2.47 161.56-23.18-23.34V0h25.65z"></path>
            </clipPath>
        </defs>
        <g>
            <g>
                <path fill="url(#svgcid-22uuy7ymkwzh)" d="M314.48 353.6L193.75 475.2H0l137.25-138.19 80.39-80.94 96.84 97.53z"></path>
                <path fill="url(#svgcid--kw412s3amtxy)" d="M411.69 255.7l-97.21 97.9-96.84-97.53-80.39-80.96V36.89h56.5l120.96 121.44 96.98 97.37z"></path>
                <path fill="url(#svgcid-ckaghr-awxhcm)" d="M137.25 36.89v300.12L0 475.2V36.89h137.25z"></path>
                <g clip-path="url(#svgcid-eswzya-xrfuo8)">
                    <use xlink:href="#8c717293-4bab-4ef0-877d-9b6dc5d04f08" transform="translate(100.55)"></use>
                    <use xlink:href="#8c717293-4bab-4ef0-877d-9b6dc5d04f08" transform="translate(100.55)"></use>
                </g>
                <path d="M511.58 374.31v-37.63c0-9.26-4.85-17.67-14.4-17.67s-15 8.41-15 17.67v37.63h-17.35v-70.42h16.1l1.29 8.55c3.7-7.12 11.82-9.69 18.52-9.69 8.41 0 16.82 3.42 20.81 13.12 6.27-10 14.4-12.83 23.52-12.83 19.95 0 29.79 12.25 29.79 33.35v37.91h-17.39v-37.9c0-9.27-3.85-17.1-13.25-17.1S529 327.42 529 336.68v37.63z" fill="#212121"></path>
                <path d="M607.33 345.38c1.15 8.69 8.7 15 21 15 6.41 0 14.82-2.42 18.81-6.55l11.12 11c-7.41 7.7-19.53 11.4-30.22 11.4-24.23 0-38.62-15-38.62-37.48 0-21.38 14.53-36.77 37.34-36.77 23.52 0 38.2 14.54 35.49 43.47zm38.2-14.4c-1.14-9.12-8.26-13.68-18.24-13.68-9.41 0-17.11 4.56-19.67 13.68z" fill="#212121"></path>
                <path d="M697.12 284.23v20h19.38v15H697v30.36c0 6.7 3.71 10 9.12 10a20 20 0 0 0 8.42-2.14l4.84 14.82a38.7 38.7 0 0 1-14.39 3c-15.26.57-25.23-8.13-25.23-25.66v-30.46h-13.14v-15h13.11v-18.06z" fill="#212121"></path>
                <path d="M746.85 274.54v39c6.27-8.12 14-10.54 21.95-10.54 20 0 28.79 13.54 28.79 34.2v37.06H780.2V337.4c0-12.83-6.7-18.25-16-18.25-10.27 0-17.39 8.7-17.39 19.24v35.92h-17.35v-99.77z" fill="#212121"></path>
                <path d="M882.1 339.25c0 20.24-13.83 36.63-36.63 36.63S809 359.49 809 339.25s14-36.63 36.34-36.63 36.76 16.53 36.76 36.63zm-55.73 0c0 10.69 6.41 20.67 19.1 20.67s19.09-10 19.09-20.67-7.41-20.81-19.09-20.81c-12.55 0-19.1 10.26-19.1 20.81z" fill="#212121"></path>
                <path d="M967 274.69v99.62h-16.22l-1.14-9.69c-5.41 8.41-14.11 11.27-22.64 11.27-20.67 0-36.2-13.68-36.2-36.77 0-24.23 15.25-36.78 35.77-36.78 7.41 0 19 4 23.09 11.26v-38.91zm-58.86 64.42c0 12.25 8.83 20.66 20 20.66s20.38-8 20.38-20.66a20.06 20.06 0 0 0-20.38-20.53c-11.14 0-19.97 7.84-19.97 20.53z" fill="#212121"></path>
                <path d="M1022.75 275.54c-16.11 12.83-24.24 31.64-24.24 51.88 0 21.67 8.13 38.77 24.24 51.45l-9.41 12.69c-22.24-14.68-32.79-40.05-32.79-64.14 0-23.8 11.27-48.6 33.5-63.57z" fill="#212121"></path>
                <path d="M1064.92 263.89c22.23 15 33.5 39.77 33.5 63.57 0 24.09-10.55 49.46-32.79 64.14l-9.12-13c16.11-12.69 24-29.5 24-51.17 0-20.24-8.13-39-24.24-51.88z" fill="#212121"></path>
                <path d="M537.8 121.89v99.63h-16.25l-1.14-9.69c-5.41 8.41-14.11 11.26-22.66 11.26-20.66 0-36.2-13.69-36.2-36.78 0-24.23 15.25-36.77 35.77-36.77 7.41 0 19 4 23.09 11.26v-38.91zm-58.86 64.42c0 12.26 8.83 20.67 19.95 20.67s20.38-8 20.38-20.67a20 20 0 0 0-20.38-20.52c-11.12-.04-19.95 7.8-19.95 20.48z" fill="#212121"></path>
                <path d="M569.28 192.54c1.15 8.7 8.7 15 21 15 6.41 0 14.82-2.42 18.81-6.55l11.12 11c-7.41 7.7-19.53 11.4-30.22 11.4-24.23 0-38.62-15-38.62-37.48 0-21.38 14.53-36.78 37.34-36.78 23.52 0 38.2 14.54 35.49 43.47zm38.2-14.39c-1.14-9.12-8.26-13.68-18.24-13.68-9.41 0-17.11 4.56-19.67 13.68z" fill="#212121"></path>
                <path d="M643.24 221.48v-54h-13.11v-15.27h13.11v-4.7c0-18.82 12.69-27.51 26.8-27.51a33.84 33.84 0 0 1 18.24 5.7l-6.41 13c-3.71-2.42-7.13-3.71-10.69-3.71-6 0-10.55 4-10.55 12.55v4.7h20.67v15.25h-20.67v54z" fill="#212121"></path>
            </g>
        </g>
    </g>
</svg>