<?xml version="1.0" encoding="UTF-8" standalone="no"?>
<!-- Created with Inkscape (http://www.inkscape.org/) -->

<svg
   version="1.1"
   id="svg2"
   width="165.69333"
   height="137.02667"
   viewBox="0 0 165.69333 137.02667"
   sodipodi:docname="SBU vert_2clr_rgb.eps"
   xmlns:inkscape="http://www.inkscape.org/namespaces/inkscape"
   xmlns:sodipodi="http://sodipodi.sourceforge.net/DTD/sodipodi-0.dtd"
   xmlns="http://www.w3.org/2000/svg"
   xmlns:svg="http://www.w3.org/2000/svg">
  <defs
     id="defs6" />
  <sodipodi:namedview
     id="namedview4"
     pagecolor="#ffffff"
     bordercolor="#000000"
     borderopacity="0.25"
     inkscape:showpageshadow="2"
     inkscape:pageopacity="0.0"
     inkscape:pagecheckerboard="0"
     inkscape:deskcolor="#d1d1d1" />
  <g
     id="g8"
     inkscape:groupmode="layer"
     inkscape:label="ink_ext_XXXXXX"
     transform="matrix(1.3333333,0,0,-1.3333333,0,137.02667)">
    <g
       id="g10"
       transform="scale(0.1)">
      <path
         d="M 9.60156,287.043 H 1.19531 L 0,356.645 h 9.83984 c 7.19926,-39.598 27.36326,-60.243 58.08596,-60.243 26.1601,0 40.5582,13.203 40.5582,34.325 0,10.078 -3.836,18 -10.5582,22.8 -8.3985,6 -21.8399,8.403 -39.3594,13.203 -38.4062,10.321 -56.88671,19.922 -56.88671,51.606 0,29.762 19.92191,48.961 51.12111,48.961 17.5273,0 32.8867,-5.758 44.8828,-16.797 l 9.3634,14.398 h 8.883 l 2.64,-62.406 h -9.359 c -9.121,35.766 -28.0821,53.766 -56.4102,53.766 -21.1211,0 -33.1172,-10.563 -33.1172,-29.043 0,-23.043 17.9961,-25.68 49.9219,-33.606 17.2812,-4.316 31.6835,-7.921 42.7225,-18 9.36,-8.64 14.641,-21.597 14.641,-36.961 0,-33.363 -21.117,-53.046 -59.5237,-53.046 -18.7265,0 -36.2422,6.722 -47.7617,18.003 L 9.60156,287.043"
         style="fill:#100f0d;fill-opacity:1;fill-rule:nonzero;stroke:none"
         id="path12" />
      <path
         d="m 129.359,390.488 v 9.606 c 19.68,1.441 30.961,18.48 32.161,49.683 h 10.082 v -48.726 h 34.566 v -10.563 h -35.77 v -69.363 c 0,-13.684 2.645,-20.402 14.165,-20.402 13.203,0 19.203,10.562 19.917,32.64 h 8.883 c 0,-0.957 0,-2.156 0,-3.117 0,-29.043 -13.199,-44.406 -37.441,-44.406 -21.602,0 -27.363,10.562 -27.363,33.125 v 71.523 h -19.2"
         style="fill:#100f0d;fill-opacity:1;fill-rule:nonzero;stroke:none"
         id="path14" />
      <path
         d="m 273.605,295.926 c 21.122,0 29.52,15.597 29.52,49.441 0,33.844 -8.398,49.684 -29.281,49.684 -20.879,0 -29.281,-15.84 -29.281,-49.684 0,-33.605 8.64,-49.441 29.042,-49.441 z m 0.239,108.969 c 31.683,0 53.761,-23.766 53.761,-59.528 0,-35.762 -22.316,-59.289 -53.761,-59.289 -31.442,0 -54.004,23.527 -54.004,59.289 0,35.762 22.324,59.528 54.004,59.528"
         style="fill:#100f0d;fill-opacity:1;fill-rule:nonzero;stroke:none"
         id="path16" />
      <path
         d="m 333.359,300.008 10.317,0.476 c 6.722,0.239 7.922,1.918 7.922,8.883 v 72.961 c 0,7.922 -2.875,9.602 -13.2,9.602 -2.164,0 -4.558,-0.239 -7.203,-0.239 v 9.36 l 41.047,2.879 v -23.039 c 10.801,15.843 22.801,23.039 39.363,23.039 22.797,0 36.243,-13.68 36.243,-38.403 v -56.16 c 0,-6.965 1.437,-8.644 7.918,-8.883 l 10.324,-0.476 v -10.086 h -58.086 v 10.086 l 10.32,0.476 c 6.242,0.239 7.922,1.918 7.922,8.883 v 57.121 c 0,14.403 -7.922,22.567 -22.082,22.567 -20.16,0 -30.723,-13.446 -30.723,-40.09 v -39.598 c 0,-6.726 0.957,-8.644 7.922,-8.883 l 10.078,-0.476 v -10.086 h -58.082 v 10.086"
         style="fill:#100f0d;fill-opacity:1;fill-rule:nonzero;stroke:none"
         id="path18" />
      <path
         d="m 477.832,380.648 c -1.68,3.602 -3.598,6.481 -5.519,7.684 -2.879,1.918 -7.2,2.641 -12.961,2.641 v 10.078 h 55.925 v -10.078 c -2.402,0 -4.32,0 -6,0 -6.964,0 -9.605,-0.723 -9.605,-5.039 0,-1.442 0.965,-3.844 2.402,-7.442 l 25.446,-58.566 24,57.605 c 0.476,1.438 1.199,2.879 1.199,5.278 0,6.722 -4.797,7.925 -16.801,8.164 v 10.078 h 46.324 v -10.078 c -8.883,0 -14.16,-4.082 -18.004,-12.965 l -40.562,-94.324 c -12.481,-29.047 -25.684,-43.688 -46.563,-43.688 -14.16,0 -22.086,7.195 -22.086,18.484 0,7.922 6.004,14.161 14.407,14.161 7.679,0 12.48,-4.559 12.48,-11.754 0,-4.086 -1.918,-6.008 -1.918,-6.965 0,-1.692 1.442,-2.649 4.317,-2.649 7.679,0 19.679,12.727 30.003,37.688 l 1.68,3.844 -38.164,87.843"
         style="fill:#100f0d;fill-opacity:1;fill-rule:nonzero;stroke:none"
         id="path20" />
      <path
         d="m 676.309,312.484 c 0,-8.879 2.402,-11.281 13.203,-11.281 h 17.043 c 28.562,0 41.043,10.082 41.043,36.004 0,27.363 -15.121,37.203 -49.684,37.203 h -21.605 z m 0,72.489 h 19.203 c 30.965,0 44.644,7.203 44.644,33.84 0,24.246 -10.801,33.605 -36.722,33.605 h -15.121 c -9.84,0 -12.004,-2.402 -12.004,-10.563 z m -50.883,-83.77 h 12.48 c 9.606,0 12.723,2.16 12.723,11.524 v 127.691 c 0,9.359 -3.117,11.516 -12.723,11.516 h -12.48 v 11.285 h 90.726 c 34.086,0 51.844,-14.883 51.844,-42.246 0,-20.641 -13.441,-34.321 -40.32,-40.082 33.121,-4.325 49.203,-18.961 49.203,-44.407 0,-29.043 -22.563,-46.562 -63.602,-46.562 h -87.851 v 11.281"
         style="fill:#100f0d;fill-opacity:1;fill-rule:nonzero;stroke:none"
         id="path22" />
      <path
         d="m 832.551,300.484 14.64,-0.476 v -10.086 h -63.125 v 10.086 l 11.282,0.476 c 6.718,0.239 7.918,2.157 7.918,8.883 v 72.961 c 0,8.406 -3.121,9.363 -14.399,9.363 -2.164,0 -4.558,0 -7.203,0 v 9.36 l 41.766,2.879 v -33.84 c 7.437,22.801 19.679,34.562 35.043,34.562 12.965,0 21.84,-8.879 21.84,-20.402 0,-8.879 -6,-14.879 -13.922,-14.879 -8.875,0 -14.161,5.516 -14.161,13.68 0,4.316 1.68,8.16 4.801,10.32 -0.476,0 -0.957,0 -1.441,0 -15.121,0 -30.961,-22.801 -30.961,-58.324 v -25.68 c 0,-6.726 1.199,-8.644 7.922,-8.883"
         style="fill:#100f0d;fill-opacity:1;fill-rule:nonzero;stroke:none"
         id="path24" />
      <path
         d="m 936.949,295.926 c 21.121,0 29.52,15.597 29.52,49.441 0,33.844 -8.399,49.684 -29.281,49.684 -20.879,0 -29.282,-15.84 -29.282,-49.684 0,-33.605 8.641,-49.441 29.043,-49.441 z m 0.239,108.969 c 31.683,0 53.765,-23.766 53.765,-59.528 0,-35.762 -22.32,-59.289 -53.765,-59.289 -31.442,0 -54.004,23.527 -54.004,59.289 0,35.762 22.324,59.528 54.004,59.528"
         style="fill:#100f0d;fill-opacity:1;fill-rule:nonzero;stroke:none"
         id="path26" />
      <path
         d="m 1055.5,295.926 c 21.13,0 29.52,15.597 29.52,49.441 0,33.844 -8.39,49.684 -29.28,49.684 -20.88,0 -29.28,-15.84 -29.28,-49.684 0,-33.605 8.64,-49.441 29.04,-49.441 z m 0.24,108.969 c 31.69,0 53.77,-23.766 53.77,-59.528 0,-35.762 -22.32,-59.289 -53.77,-59.289 -31.44,0 -54,23.527 -54,59.289 0,35.762 22.32,59.528 54,59.528"
         style="fill:#100f0d;fill-opacity:1;fill-rule:nonzero;stroke:none"
         id="path28" />
      <path
         d="m 1109.98,300.008 10.8,0.476 c 6.72,0.239 8.17,2.157 8.17,8.883 v 136.571 c 0,7.921 -2.89,9.601 -13.21,9.601 -1.92,0 -4.32,-0.238 -6.96,-0.238 v 9.359 l 42.01,2.879 V 348.727 l 36.96,33.843 c 1.68,1.68 2.88,4.082 2.88,5.282 0,3.121 -3.84,4.078 -12.24,4.078 h -7.68 v 9.121 h 61.44 v -9.121 c -0.48,0 -0.96,0 -1.44,0 -15.6,0 -24.96,-7.438 -37.2,-18.719 l -12.24,-11.281 37.68,-50.168 c 6,-8.157 12.72,-11.278 23.76,-11.754 v -10.086 h -61.92 v 10.086 l 7.2,0.476 c 5.52,0.239 8.4,0.719 8.4,3.598 0,1.922 -0.96,3.121 -2.16,4.801 l -28.81,38.887 -14.63,-12.965 v -25.438 c 0,-6.965 1.44,-8.644 8.16,-8.883 l 10.56,-0.476 v -10.086 h -59.53 v 10.086"
         style="fill:#100f0d;fill-opacity:1;fill-rule:nonzero;stroke:none"
         id="path30" />
      <path
         d="m 166.684,223.219 v -11.281 h -12.481 c -9.598,0 -12.719,-2.403 -12.719,-11.52 v -96.977 c 0,-30.4762 15.121,-44.3902 48.004,-44.3902 21.602,0 36,7.6719 42.723,22.3125 3.121,6.7305 3.602,17.7656 3.602,33.3667 v 75.61 c 0,14.637 -3.122,21.598 -17.282,21.598 h -10.562 v 11.281 h 66.008 v -11.281 h -8.883 c -13.684,0 -17.52,-6.25 -17.52,-21.598 v -76.567 c 0,-47.0503 -17.285,-67.9292 -66.488,-67.9292 -43.445,0 -65.523,19.4335 -65.523,57.8442 v 96.73 c 0,9.117 -2.641,11.52 -12.727,11.52 H 88.9141 v 11.281 h 77.7699"
         style="fill:#971a1f;fill-opacity:1;fill-rule:nonzero;stroke:none"
         id="path32" />
      <path
         d="m 262.441,60.0078 10.317,0.4766 c 6.722,0.2422 7.922,1.9219 7.922,8.875 v 72.9686 c 0,7.922 -2.875,9.602 -13.2,9.602 -2.164,0 -4.558,-0.246 -7.203,-0.246 v 9.367 l 41.047,2.879 v -23.043 c 10.801,15.847 22.801,23.043 39.364,23.043 22.796,0 36.242,-13.68 36.242,-38.399 V 69.3594 c 0,-6.9531 1.437,-8.6328 7.918,-8.875 l 10.324,-0.4766 v -10.082 h -58.086 v 10.082 l 10.32,0.4766 c 6.242,0.2422 7.922,1.9219 7.922,8.875 v 57.1286 c 0,14.399 -7.922,22.563 -22.082,22.563 -20.16,0 -30.723,-13.442 -30.723,-40.082 V 69.3594 c 0,-6.7188 0.957,-8.6328 7.922,-8.875 l 10.078,-0.4766 v -10.082 h -58.082 v 10.082"
         style="fill:#971a1f;fill-opacity:1;fill-rule:nonzero;stroke:none"
         id="path34" />
      <path
         d="m 443.883,209.301 c 0,-7.93 -6.481,-14.16 -14.403,-14.16 -7.917,0 -14.16,6.718 -14.16,14.16 0,7.676 6.481,14.164 14.16,14.164 7.684,0 14.403,-6.25 14.403,-14.164 z M 399.477,60.0078 411,60.4844 c 6.719,0.2422 8.16,2.1562 8.16,8.875 v 72.9686 c 0,7.922 -2.883,9.602 -13.199,9.602 -1.922,0 -4.32,-0.246 -6.961,-0.246 v 9.367 l 42,2.879 V 69.3594 c 0,-6.9531 1.441,-8.6328 8.164,-8.875 l 10.563,-0.4766 v -10.082 h -60.25 v 10.082"
         style="fill:#971a1f;fill-opacity:1;fill-rule:nonzero;stroke:none"
         id="path36" />
      <path
         d="m 514.199,46.0781 -41.523,95.2929 c -3.121,7.442 -6.481,9.602 -15.602,9.602 -0.719,0 -1.199,0 -1.679,0 v 10.078 h 53.765 v -10.078 c -10.082,-0.246 -14.398,-0.965 -14.398,-5.52 0,-1.441 0.957,-3.848 2.636,-7.683 l 25.922,-59.7661 21.364,55.2071 c 1.437,3.844 2.402,6.961 2.402,9.598 0,5.046 -4.563,8.164 -13.203,8.164 -0.719,0 -1.68,0 -2.645,0 v 10.078 h 46.571 v -10.078 c -10.801,-0.246 -15.844,-5.52 -20.407,-16.805 L 521.641,46.0781 h -7.442"
         style="fill:#971a1f;fill-opacity:1;fill-rule:nonzero;stroke:none"
         id="path38" />
      <path
         d="m 644.758,114.012 c 6.238,0 8.402,1.441 8.402,7.672 0,21.847 -9.121,33.617 -25.445,33.617 -18.242,0 -27.117,-13.696 -27.602,-41.289 z M 599.633,98.8906 c 0,-25.4492 12.961,-40.0859 31.926,-40.0859 16.562,0 29.281,8.6406 38.164,25.9258 l 8.398,-4.8047 C 667.559,57.3672 650.52,46.0781 627.477,46.0781 c -30.247,0 -52.086,23.2813 -52.086,59.2889 0,35.762 21.601,59.52 52.086,59.52 30.961,0 50.644,-21.356 50.644,-56.875 0,-1.446 0,-2.891 0,-4.324 h -78.25 c 0,-1.68 -0.238,-3.118 -0.238,-4.7974"
         style="fill:#971a1f;fill-opacity:1;fill-rule:nonzero;stroke:none"
         id="path40" />
      <path
         d="m 732.113,60.4844 14.645,-0.4766 v -10.082 h -63.125 v 10.082 l 11.277,0.4766 c 6.723,0.2422 7.922,2.1562 7.922,8.875 v 72.9686 c 0,8.399 -3.121,9.356 -14.398,9.356 -2.164,0 -4.563,0 -7.204,0 v 9.367 l 41.762,2.879 v -33.844 c 7.442,22.809 19.684,34.566 35.043,34.566 12.965,0 21.844,-8.886 21.844,-20.41 0,-8.863 -6,-14.871 -13.922,-14.871 -8.883,0 -14.16,5.516 -14.16,13.68 0,4.316 1.68,8.168 4.801,10.312 -0.481,0 -0.957,0 -1.442,0 -15.121,0 -30.961,-22.793 -30.961,-58.3161 V 69.3594 c 0,-6.7188 1.2,-8.6328 7.918,-8.875"
         style="fill:#971a1f;fill-opacity:1;fill-rule:nonzero;stroke:none"
         id="path42" />
      <path
         d="m 795.473,93.8516 c 6.004,-24.7227 20.164,-37.6953 39.363,-37.6953 15.359,0 25.203,7.9335 25.203,19.9218 0,12.7266 -9.601,15.3711 -25.203,18.4883 -29.039,6.0036 -46.566,11.0426 -46.566,37.6876 0,19.922 13.445,32.398 33.367,32.398 11.515,0 20.398,-2.168 30.242,-9.351 l 6.961,8.394 h 7.437 v -39.843 h -7.437 c -6.723,20.878 -18.723,31.449 -35.766,31.449 -13.441,0 -21.84,-7.446 -21.84,-16.567 0,-14.16 10.321,-15.847 30,-19.683 28.329,-5.531 42.965,-12.004 42.965,-36.0002 0,-23.043 -15.121,-37.4492 -40.082,-37.4492 -11.281,0 -21.363,3.6015 -31.445,11.7656 l -7.922,-11.043 h -7.918 v 47.5274 h 8.641"
         style="fill:#971a1f;fill-opacity:1;fill-rule:nonzero;stroke:none"
         id="path44" />
      <path
         d="m 926.508,209.301 c 0,-7.93 -6.481,-14.16 -14.399,-14.16 -7.921,0 -14.16,6.718 -14.16,14.16 0,7.676 6.481,14.164 14.16,14.164 7.68,0 14.399,-6.25 14.399,-14.164 z m -44.403,-149.2932 11.524,0.4766 c 6.719,0.2422 8.156,2.1562 8.156,8.875 v 72.9686 c 0,7.922 -2.879,9.602 -13.195,9.602 -1.926,0 -4.32,-0.246 -6.965,-0.246 v 9.367 l 42.004,2.879 V 69.3594 c 0,-6.9531 1.437,-8.6328 8.164,-8.875 l 10.562,-0.4766 v -10.082 h -60.25 v 10.082"
         style="fill:#971a1f;fill-opacity:1;fill-rule:nonzero;stroke:none"
         id="path46" />
      <path
         d="m 939.945,150.492 v 9.602 c 19.68,1.433 30.961,18.484 32.16,49.676 h 10.083 v -48.719 h 34.562 V 150.492 H 980.984 V 81.1172 c 0,-13.6719 2.645,-20.3906 14.161,-20.3906 13.205,0 19.205,10.5586 19.925,32.6367 h 8.88 c 0,-0.957 0,-2.1563 0,-3.125 0,-29.043 -13.2,-44.3945 -37.442,-44.3945 -21.602,0 -27.363,10.5585 -27.363,33.125 v 71.5232 h -19.2"
         style="fill:#971a1f;fill-opacity:1;fill-rule:nonzero;stroke:none"
         id="path48" />
      <path
         d="m 1042.9,140.648 c -1.68,3.594 -3.6,6.489 -5.52,7.676 -2.88,1.926 -7.2,2.649 -12.96,2.649 v 10.078 h 55.93 v -10.078 c -2.41,0 -4.32,0 -6,0 -6.97,0 -9.61,-0.723 -9.61,-5.039 0,-1.438 0.96,-3.84 2.4,-7.442 l 25.45,-58.5662 24,57.5972 c 0.48,1.446 1.2,2.895 1.2,5.286 0,6.726 -4.8,7.918 -16.8,8.164 v 10.078 h 46.32 v -10.078 c -8.88,0 -14.16,-4.082 -18,-12.961 L 1088.75,43.6758 C 1076.26,14.6289 1063.06,0 1042.18,0 c -14.16,0 -22.08,7.19141 -22.08,18.4805 0,7.9179 6,14.1601 14.4,14.1601 7.68,0 12.48,-4.5586 12.48,-11.7617 0,-4.0781 -1.92,-6 -1.92,-6.957 0,-1.6914 1.44,-2.6406 4.32,-2.6406 7.68,0 19.68,12.7187 30,37.6796 l 1.68,3.8399 -38.16,87.8472"
         style="fill:#971a1f;fill-opacity:1;fill-rule:nonzero;stroke:none"
         id="path50" />
      <path
         d="m 823.27,977.59 c -112.911,68.93 -290.829,64.8 -405.04,0 V 796.859 c -1.367,-97.343 61.313,-187.988 146.094,-229.871 18.672,-9.187 35.949,-15.566 56.446,-20.371 20.48,4.805 37.753,11.184 56.418,20.371 84.753,41.856 147.46,132.528 146.066,229.871 l 0.016,180.731"
         style="fill:#ffffff;fill-opacity:1;fill-rule:nonzero;stroke:none"
         id="path52" />
      <path
         d="m 757.727,628.871 -85.254,396.379 c -3.578,0.36 -7.18,0.57 -10.762,0.86 l 71.617,-421.407 c 8.637,7.512 16.777,15.598 24.399,24.168"
         style="fill:#971a1f;fill-opacity:1;fill-rule:nonzero;stroke:none"
         id="path54" />
      <path
         d="m 822.859,782.418 -98.418,234.212 c -3.765,0.87 -7.578,1.6 -11.382,2.35 L 817.371,742.445 c 3,13.067 4.809,26.438 5.488,39.973"
         style="fill:#971a1f;fill-opacity:1;fill-rule:nonzero;stroke:none"
         id="path56" />
      <path
         d="m 677.188,567.008 c 6.433,3.183 12.695,6.738 18.867,10.461 L 647.188,1027.2 c -3.848,0.18 -7.708,0.16 -11.583,0.26 l 29.637,-465.98 c 3.957,1.747 7.903,3.536 11.946,5.528"
         style="fill:#971a1f;fill-opacity:1;fill-rule:nonzero;stroke:none"
         id="path58" />
      <path
         d="m 801.719,696.43 -103.711,325.39 c -3.621,0.59 -7.278,1.05 -10.906,1.55 l 98.289,-357.495 c 6.113,9.813 11.582,20.02 16.328,30.555"
         style="fill:#971a1f;fill-opacity:1;fill-rule:nonzero;stroke:none"
         id="path60" />
      <path
         d="m 823.281,977.613 c -24.914,15.196 -53.078,26.637 -82.91,34.867 l 82.883,-173.628 0.027,138.761"
         style="fill:#971a1f;fill-opacity:1;fill-rule:nonzero;stroke:none"
         id="path62" />
      <path
         d="m 543.406,812.438 11.321,-34.758 -29.559,21.488 -29.504,-21.488 11.301,34.758 -29.399,21.406 h 36.34 l 11.262,34.547 11.324,-34.547 h 36.289 z M 418.23,977.613 v -180.73 c -1.382,-97.348 61.301,-188.012 146.086,-229.875 18.664,-9.199 35.957,-15.567 56.438,-20.371 v 481.113 c -72.707,-0.59 -145.551,-17.8 -202.524,-50.137"
         style="fill:#971a1f;fill-opacity:1;fill-rule:nonzero;stroke:none"
         id="path64" />
    </g>
  </g>
</svg>
