<?xml version="1.0" encoding="UTF-8" standalone="no"?>
<!-- Created with Inkscape (http://www.inkscape.org/) -->

<svg
   version="1.1"
   id="svg2"
   width="379.02667"
   height="64.146667"
   viewBox="0 0 379.02667 64.146667"
   sodipodi:docname="SBU horz_2clr_rgb.eps"
   xmlns:inkscape="http://www.inkscape.org/namespaces/inkscape"
   xmlns:sodipodi="http://sodipodi.sourceforge.net/DTD/sodipodi-0.dtd"
   xmlns="http://www.w3.org/2000/svg"
   xmlns:svg="http://www.w3.org/2000/svg">
  <defs
     id="defs6" />
  <sodipodi:namedview
     id="namedview4"
     pagecolor="#ffffff"
     bordercolor="#000000"
     borderopacity="0.25"
     inkscape:showpageshadow="2"
     inkscape:pageopacity="0.0"
     inkscape:pagecheckerboard="0"
     inkscape:deskcolor="#d1d1d1" />
  <g
     id="g8"
     inkscape:groupmode="layer"
     inkscape:label="ink_ext_XXXXXX"
     transform="matrix(1.3333333,0,0,-1.3333333,0,64.146667)">
    <g
       id="g10"
       transform="scale(0.1)">
      <path
         d="m 512.305,164.254 h -8.403 l -1.199,69.605 h 9.84 c 7.203,-39.601 27.363,-60.246 58.086,-60.246 26.164,0 40.562,13.203 40.562,34.328 0,10.079 -3.836,17.997 -10.562,22.797 -8.399,6 -21.84,8.403 -39.359,13.203 -38.403,10.321 -56.883,19.922 -56.883,51.606 0,29.762 19.922,48.961 51.121,48.961 17.523,0 32.887,-5.758 44.883,-16.797 l 9.359,14.398 h 8.883 l 2.64,-62.406 h -9.359 c -9.121,35.766 -28.082,53.766 -56.406,53.766 -21.121,0 -33.121,-10.563 -33.121,-29.043 0,-23.043 18,-25.68 49.922,-33.606 17.281,-4.316 31.683,-7.918 42.726,-18 9.36,-8.64 14.637,-21.597 14.637,-36.961 0,-33.363 -21.117,-53.046 -59.52,-53.046 -18.726,0 -36.246,6.722 -47.765,18.003 l -10.082,-16.562"
         style="fill:#100f0d;fill-opacity:1;fill-rule:nonzero;stroke:none"
         id="path12" />
      <path
         d="m 632.066,267.699 v 9.606 c 19.676,1.441 30.961,18.48 32.157,49.683 h 10.086 v -48.726 h 34.562 v -10.563 h -35.766 v -69.363 c 0,-13.684 2.641,-20.402 14.161,-20.402 13.203,0 19.203,10.562 19.922,32.64 h 8.882 c 0,-0.957 0,-2.156 0,-3.117 0,-29.043 -13.199,-44.406 -37.441,-44.406 -21.602,0 -27.363,10.562 -27.363,33.125 v 71.523 h -19.2"
         style="fill:#100f0d;fill-opacity:1;fill-rule:nonzero;stroke:none"
         id="path14" />
      <path
         d="m 776.309,173.137 c 21.125,0 29.519,15.597 29.519,49.441 0,33.844 -8.394,49.684 -29.281,49.684 -20.879,0 -29.281,-15.84 -29.281,-49.684 0,-33.601 8.64,-49.441 29.043,-49.441 z m 0.238,108.968 c 31.683,0 53.766,-23.765 53.766,-59.527 0,-35.762 -22.321,-59.289 -53.766,-59.289 -31.442,0 -54.004,23.527 -54.004,59.289 0,35.762 22.324,59.527 54.004,59.527"
         style="fill:#100f0d;fill-opacity:1;fill-rule:nonzero;stroke:none"
         id="path16" />
      <path
         d="m 836.063,177.219 10.32,0.476 c 6.722,0.239 7.918,1.918 7.918,8.883 v 72.961 c 0,7.922 -2.875,9.602 -13.196,9.602 -2.164,0 -4.562,-0.239 -7.203,-0.239 v 9.36 l 41.043,2.883 v -23.043 c 10.801,15.843 22.805,23.043 39.368,23.043 22.796,0 36.238,-13.684 36.238,-38.407 v -56.16 c 0,-6.965 1.441,-8.644 7.922,-8.883 l 10.32,-0.476 v -10.086 h -58.086 v 10.086 l 10.324,0.476 c 6.239,0.239 7.918,1.918 7.918,8.883 v 57.121 c 0,14.403 -7.918,22.567 -22.078,22.567 -20.16,0 -30.723,-13.446 -30.723,-40.09 v -39.598 c 0,-6.723 0.957,-8.644 7.918,-8.883 l 10.079,-0.476 v -10.086 h -58.082 v 10.086"
         style="fill:#100f0d;fill-opacity:1;fill-rule:nonzero;stroke:none"
         id="path18" />
      <path
         d="m 980.535,257.863 c -1.68,3.598 -3.597,6.477 -5.515,7.68 -2.879,1.918 -7.204,2.641 -12.965,2.641 v 10.078 h 55.925 v -10.078 c -2.4,0 -4.32,0 -6,0 -6.96,0 -9.6,-0.723 -9.6,-5.039 0,-1.442 0.96,-3.844 2.4,-7.442 l 25.44,-58.562 24,57.601 c 0.48,1.442 1.2,2.879 1.2,5.278 0,6.722 -4.79,7.925 -16.8,8.164 v 10.078 h 46.33 v -10.078 c -8.89,0 -14.16,-4.082 -18.01,-12.965 l -40.56,-94.324 c -12.48,-29.043 -25.68,-43.688 -46.56,-43.688 -14.16,0 -22.086,7.203 -22.086,18.488 0,7.918 6,14.16 14.407,14.16 7.679,0 12.476,-4.562 12.476,-11.765 0,-4.082 -1.918,-6 -1.918,-6.957 0,-1.684 1.442,-2.641 4.317,-2.641 7.679,0 19.684,12.719 30.004,37.68 l 1.68,3.844 -38.165,87.847"
         style="fill:#100f0d;fill-opacity:1;fill-rule:nonzero;stroke:none"
         id="path20" />
      <path
         d="m 1179.01,189.695 c 0,-8.879 2.41,-11.281 13.21,-11.281 h 17.04 c 28.56,0 41.04,10.082 41.04,36.004 0,27.363 -15.12,37.203 -49.68,37.203 h -21.61 z m 0,72.489 h 19.21 c 30.96,0 44.64,7.203 44.64,33.843 0,24.243 -10.8,33.602 -36.72,33.602 h -15.12 c -9.84,0 -12.01,-2.402 -12.01,-10.563 z m -50.88,-83.77 h 12.48 c 9.6,0 12.72,2.16 12.72,11.524 v 127.691 c 0,9.359 -3.12,11.516 -12.72,11.516 h -12.48 v 11.285 h 90.73 c 34.08,0 51.84,-14.883 51.84,-42.246 0,-20.641 -13.44,-34.321 -40.32,-40.082 33.12,-4.325 49.2,-18.961 49.2,-44.407 0,-29.043 -22.56,-46.562 -63.6,-46.562 h -87.85 v 11.281"
         style="fill:#100f0d;fill-opacity:1;fill-rule:nonzero;stroke:none"
         id="path22" />
      <path
         d="m 1335.25,177.695 14.65,-0.476 v -10.086 h -63.13 v 10.086 l 11.28,0.476 c 6.72,0.239 7.92,2.16 7.92,8.883 v 72.961 c 0,8.406 -3.12,9.363 -14.4,9.363 -2.16,0 -4.56,0 -7.2,0 v 9.36 l 41.76,2.883 v -33.844 c 7.44,22.801 19.69,34.562 35.05,34.562 12.96,0 21.84,-8.879 21.84,-20.402 0,-8.879 -6,-14.879 -13.92,-14.879 -8.88,0 -14.16,5.52 -14.16,13.684 0,4.312 1.68,8.156 4.8,10.316 -0.48,0 -0.96,0 -1.44,0 -15.13,0 -30.97,-22.801 -30.97,-58.324 v -25.68 c 0,-6.723 1.21,-8.644 7.92,-8.883"
         style="fill:#100f0d;fill-opacity:1;fill-rule:nonzero;stroke:none"
         id="path24" />
      <path
         d="m 1439.65,173.137 c 21.13,0 29.52,15.597 29.52,49.441 0,33.844 -8.39,49.684 -29.28,49.684 -20.88,0 -29.28,-15.84 -29.28,-49.684 0,-33.601 8.64,-49.441 29.04,-49.441 z m 0.24,108.968 c 31.69,0 53.77,-23.765 53.77,-59.527 0,-35.762 -22.32,-59.289 -53.77,-59.289 -31.44,0 -54,23.527 -54,59.289 0,35.762 22.32,59.527 54,59.527"
         style="fill:#100f0d;fill-opacity:1;fill-rule:nonzero;stroke:none"
         id="path26" />
      <path
         d="m 1558.21,173.137 c 21.12,0 29.52,15.597 29.52,49.441 0,33.844 -8.4,49.684 -29.28,49.684 -20.88,0 -29.28,-15.84 -29.28,-49.684 0,-33.601 8.64,-49.441 29.04,-49.441 z m 0.24,108.968 c 31.68,0 53.76,-23.765 53.76,-59.527 0,-35.762 -22.32,-59.289 -53.76,-59.289 -31.44,0 -54.01,23.527 -54.01,59.289 0,35.762 22.33,59.527 54.01,59.527"
         style="fill:#100f0d;fill-opacity:1;fill-rule:nonzero;stroke:none"
         id="path28" />
      <path
         d="m 1612.69,177.219 10.8,0.476 c 6.72,0.239 8.16,2.16 8.16,8.883 v 136.57 c 0,7.922 -2.88,9.602 -13.2,9.602 -1.92,0 -4.32,-0.238 -6.97,-0.238 v 9.359 l 42.01,2.879 V 225.938 l 36.96,33.843 c 1.68,1.68 2.88,4.082 2.88,5.282 0,3.121 -3.84,4.078 -12.24,4.078 h -7.68 v 9.121 h 61.45 v -9.121 c -0.48,0 -0.96,0 -1.44,0 -15.6,0 -24.96,-7.438 -37.2,-18.719 l -12.25,-11.281 37.69,-50.164 c 6,-8.161 12.72,-11.282 23.76,-11.758 v -10.086 h -61.93 v 10.086 l 7.2,0.476 c 5.53,0.239 8.4,0.719 8.4,3.598 0,1.922 -0.96,3.121 -2.16,4.801 l -28.8,38.886 -14.64,-12.964 v -25.438 c 0,-6.965 1.44,-8.644 8.16,-8.883 l 10.56,-0.476 v -10.086 h -59.52 v 10.086"
         style="fill:#100f0d;fill-opacity:1;fill-rule:nonzero;stroke:none"
         id="path30" />
      <path
         d="m 1862.05,340.43 v -11.285 h -12.48 c -9.6,0 -12.72,-2.399 -12.72,-11.516 V 220.66 c 0,-30.484 15.12,-44.406 48,-44.406 21.6,0 36,7.684 42.72,22.32 3.12,6.723 3.6,17.766 3.6,33.364 v 75.605 c 0,14.645 -3.12,21.602 -17.28,21.602 h -10.56 v 11.285 h 66.01 v -11.285 h -8.89 c -13.68,0 -17.52,-6.239 -17.52,-21.602 V 230.98 c 0,-47.042 -17.28,-67.929 -66.48,-67.929 -43.45,0 -65.53,19.445 -65.53,57.847 v 96.731 c 0,9.117 -2.64,11.516 -12.72,11.516 h -13.92 v 11.285 h 77.77"
         style="fill:#971a1f;fill-opacity:1;fill-rule:nonzero;stroke:none"
         id="path32" />
      <path
         d="m 1957.8,177.219 10.32,0.476 c 6.72,0.239 7.92,1.918 7.92,8.883 v 72.961 c 0,7.922 -2.88,9.602 -13.2,9.602 -2.16,0 -4.56,-0.239 -7.21,-0.239 v 9.36 l 41.05,2.883 v -23.043 c 10.8,15.843 22.8,23.043 39.36,23.043 22.8,0 36.25,-13.684 36.25,-38.407 v -56.16 c 0,-6.965 1.44,-8.644 7.92,-8.883 l 10.32,-0.476 v -10.086 h -58.09 v 10.086 l 10.32,0.476 c 6.24,0.239 7.92,1.918 7.92,8.883 v 57.121 c 0,14.403 -7.92,22.567 -22.08,22.567 -20.16,0 -30.72,-13.446 -30.72,-40.09 v -39.598 c 0,-6.723 0.96,-8.644 7.92,-8.883 l 10.08,-0.476 v -10.086 h -58.08 v 10.086"
         style="fill:#971a1f;fill-opacity:1;fill-rule:nonzero;stroke:none"
         id="path34" />
      <path
         d="m 2139.24,326.508 c 0,-7.918 -6.48,-14.16 -14.4,-14.16 -7.92,0 -14.16,6.718 -14.16,14.16 0,7.683 6.48,14.16 14.16,14.16 7.68,0 14.4,-6.238 14.4,-14.16 z m -44.41,-149.289 11.53,0.476 c 6.72,0.239 8.16,2.16 8.16,8.883 v 72.961 c 0,7.922 -2.88,9.602 -13.2,9.602 -1.93,0 -4.32,-0.239 -6.96,-0.239 v 9.36 l 42,2.883 v -94.567 c 0,-6.965 1.44,-8.644 8.16,-8.883 l 10.56,-0.476 v -10.086 h -60.25 v 10.086"
         style="fill:#971a1f;fill-opacity:1;fill-rule:nonzero;stroke:none"
         id="path36" />
      <path
         d="m 2209.56,163.289 -41.53,95.297 c -3.12,7.434 -6.48,9.598 -15.6,9.598 -0.72,0 -1.2,0 -1.68,0 v 10.078 h 53.77 v -10.078 c -10.09,-0.239 -14.4,-0.961 -14.4,-5.524 0,-1.437 0.95,-3.836 2.63,-7.68 l 25.93,-59.765 21.36,55.207 c 1.44,3.84 2.4,6.961 2.4,9.598 0,5.043 -4.56,8.164 -13.2,8.164 -0.72,0 -1.68,0 -2.64,0 v 10.078 h 46.56 v -10.078 c -10.8,-0.239 -15.84,-5.524 -20.4,-16.801 L 2217,163.289 h -7.44"
         style="fill:#971a1f;fill-opacity:1;fill-rule:nonzero;stroke:none"
         id="path38" />
      <path
         d="m 2340.12,231.223 c 6.24,0 8.4,1.437 8.4,7.679 0,21.84 -9.12,33.602 -25.44,33.602 -18.25,0 -27.12,-13.68 -27.61,-41.281 z M 2295,216.098 c 0,-25.446 12.95,-40.082 31.92,-40.082 16.56,0 29.28,8.636 38.16,25.922 l 8.4,-4.797 c -10.56,-22.567 -27.6,-33.852 -50.64,-33.852 -30.25,0 -52.09,23.289 -52.09,59.289 0,35.762 21.6,59.527 52.09,59.527 30.96,0 50.64,-21.363 50.64,-56.886 0,-1.442 0,-2.879 0,-4.321 h -78.25 c 0,-1.679 -0.23,-3.121 -0.23,-4.8"
         style="fill:#971a1f;fill-opacity:1;fill-rule:nonzero;stroke:none"
         id="path40" />
      <path
         d="m 2427.48,177.695 14.64,-0.476 v -10.086 h -63.13 v 10.086 l 11.28,0.476 c 6.72,0.239 7.92,2.16 7.92,8.883 v 72.961 c 0,8.406 -3.12,9.363 -14.4,9.363 -2.16,0 -4.56,0 -7.2,0 v 9.36 l 41.76,2.883 v -33.844 c 7.45,22.801 19.69,34.562 35.05,34.562 12.96,0 21.84,-8.879 21.84,-20.402 0,-8.879 -6,-14.879 -13.92,-14.879 -8.88,0 -14.16,5.52 -14.16,13.684 0,4.312 1.68,8.156 4.8,10.316 -0.48,0 -0.96,0 -1.44,0 -15.12,0 -30.96,-22.801 -30.96,-58.324 v -25.68 c 0,-6.723 1.2,-8.644 7.92,-8.883"
         style="fill:#971a1f;fill-opacity:1;fill-rule:nonzero;stroke:none"
         id="path42" />
      <path
         d="m 2490.83,211.059 c 6,-24.719 20.16,-37.684 39.36,-37.684 15.36,0 25.21,7.918 25.21,19.922 0,12.719 -9.6,15.359 -25.21,18.48 -29.03,6 -46.56,11.039 -46.56,37.688 0,19.922 13.45,32.398 33.37,32.398 11.51,0 20.39,-2.16 30.23,-9.359 l 6.96,8.398 h 7.45 v -39.843 h -7.45 c -6.71,20.886 -18.72,31.445 -35.76,31.445 -13.44,0 -21.84,-7.441 -21.84,-16.563 0,-14.16 10.32,-15.843 30,-19.679 28.33,-5.524 42.97,-12.004 42.97,-36.004 0,-23.039 -15.12,-37.445 -40.08,-37.445 -11.29,0 -21.37,3.601 -31.45,11.761 l -7.93,-11.039 h -7.91 v 47.524 h 8.64"
         style="fill:#971a1f;fill-opacity:1;fill-rule:nonzero;stroke:none"
         id="path44" />
      <path
         d="m 2621.86,326.508 c 0,-7.918 -6.47,-14.16 -14.39,-14.16 -7.92,0 -14.16,6.718 -14.16,14.16 0,7.683 6.48,14.16 14.16,14.16 7.67,0 14.39,-6.238 14.39,-14.16 z m -44.39,-149.289 11.52,0.476 c 6.72,0.239 8.15,2.16 8.15,8.883 v 72.961 c 0,7.922 -2.88,9.602 -13.19,9.602 -1.93,0 -4.33,-0.239 -6.97,-0.239 v 9.36 l 42.01,2.883 v -94.567 c 0,-6.965 1.43,-8.644 8.16,-8.883 l 10.56,-0.476 v -10.086 h -60.24 v 10.086"
         style="fill:#971a1f;fill-opacity:1;fill-rule:nonzero;stroke:none"
         id="path46" />
      <path
         d="m 2635.3,267.699 v 9.606 c 19.69,1.441 30.96,18.48 32.17,49.683 h 10.07 v -48.726 h 34.56 v -10.563 h -35.76 v -69.363 c 0,-13.684 2.64,-20.402 14.16,-20.402 13.21,0 19.2,10.562 19.92,32.64 h 8.89 c 0,-0.957 0,-2.156 0,-3.117 0,-29.043 -13.2,-44.406 -37.45,-44.406 -21.6,0 -27.36,10.562 -27.36,33.125 v 71.523 h -19.2"
         style="fill:#971a1f;fill-opacity:1;fill-rule:nonzero;stroke:none"
         id="path48" />
      <path
         d="m 2738.26,257.863 c -1.68,3.598 -3.61,6.477 -5.52,7.68 -2.88,1.918 -7.21,2.641 -12.96,2.641 v 10.078 h 55.92 v -10.078 c -2.4,0 -4.32,0 -6,0 -6.96,0 -9.6,-0.723 -9.6,-5.039 0,-1.442 0.96,-3.844 2.4,-7.442 l 25.44,-58.562 24.01,57.601 c 0.48,1.442 1.19,2.879 1.19,5.278 0,6.722 -4.8,7.925 -16.8,8.164 v 10.078 h 46.33 v -10.078 c -8.89,0 -14.17,-4.082 -18.01,-12.965 l -40.55,-94.324 c -12.49,-29.043 -25.69,-43.688 -46.58,-43.688 -14.16,0 -22.08,7.203 -22.08,18.488 0,7.918 6.01,14.16 14.41,14.16 7.67,0 12.48,-4.562 12.48,-11.765 0,-4.082 -1.92,-6 -1.92,-6.957 0,-1.684 1.44,-2.641 4.32,-2.641 7.68,0 19.68,12.719 30,37.68 l 1.68,3.844 -38.16,87.847"
         style="fill:#971a1f;fill-opacity:1;fill-rule:nonzero;stroke:none"
         id="path50" />
      <path
         d="m 405.063,430.973 c -112.911,68.929 -290.829,64.8 -405.0395625,0 V 250.242 C -1.34375,152.902 61.332,62.2578 146.117,20.3711 164.789,11.1836 182.07,4.80469 202.563,0 c 20.48,4.80469 37.757,11.1836 56.421,20.3711 84.754,41.8555 147.457,132.5309 146.059,229.8709 l 0.02,180.731"
         style="fill:#ffffff;fill-opacity:1;fill-rule:nonzero;stroke:none"
         id="path52" />
      <path
         d="M 339.516,82.2578 254.27,478.633 c -3.579,0.363 -7.18,0.578 -10.762,0.855 L 315.121,58.0859 c 8.641,7.5118 16.777,15.5977 24.395,24.1719"
         style="fill:#971a1f;fill-opacity:1;fill-rule:nonzero;stroke:none"
         id="path54" />
      <path
         d="m 404.656,235.801 -98.418,234.215 c -3.773,0.867 -7.578,1.597 -11.383,2.347 L 399.172,195.828 c 2.992,13.07 4.805,26.438 5.484,39.973"
         style="fill:#971a1f;fill-opacity:1;fill-rule:nonzero;stroke:none"
         id="path56" />
      <path
         d="m 258.984,20.3906 c 6.438,3.1836 12.696,6.7383 18.868,10.461 L 228.98,480.586 c -3.843,0.18 -7.707,0.156 -11.582,0.254 L 247.035,14.8633 c 3.961,1.75 7.906,3.5351 11.949,5.5273"
         style="fill:#971a1f;fill-opacity:1;fill-rule:nonzero;stroke:none"
         id="path58" />
      <path
         d="M 383.516,149.816 279.801,475.199 c -3.617,0.594 -7.278,1.051 -10.91,1.555 l 98.297,-357.496 c 6.113,9.812 11.582,20.019 16.328,30.558"
         style="fill:#971a1f;fill-opacity:1;fill-rule:nonzero;stroke:none"
         id="path60" />
      <path
         d="m 405.074,430.996 c -24.906,15.195 -53.07,26.641 -82.906,34.863 l 82.875,-173.621 0.031,138.758"
         style="fill:#971a1f;fill-opacity:1;fill-rule:nonzero;stroke:none"
         id="path62" />
      <path
         d="m 125.199,265.82 11.321,-34.754 -29.563,21.485 -29.5,-21.485 11.3047,34.754 -29.4023,21.407 h 36.3398 l 11.2578,34.546 11.328,-34.546 h 36.289 z M 0.0234375,430.996 V 250.266 C -1.36328,152.922 61.3281,62.2578 146.109,20.3906 164.773,11.1914 182.07,4.82422 202.551,0.0195313 V 481.133 C 129.844,480.543 56.9961,463.332 0.0234375,430.996"
         style="fill:#971a1f;fill-opacity:1;fill-rule:nonzero;stroke:none"
         id="path64" />
    </g>
  </g>
</svg>
